<svg width="640" height="512" viewBox="0 0 640 512" fill="none" xmlns="http://www.w3.org/2000/svg">
<g filter="url(#filter0_d)">
<path d="M255.03 261.65C261.28 267.9 271.41 267.9 277.66 261.65L288.97 250.34C295.22 244.09 295.22 233.96 288.97 227.71L253.25 192L288.96 156.28C295.21 150.03 295.21 139.9 288.96 133.65L277.65 122.34C271.4 116.09 261.27 116.09 255.02 122.34L196.68 180.68C190.43 186.93 190.43 197.06 196.68 203.31L255.03 261.65V261.65ZM351.04 250.35L362.35 261.66C368.6 267.91 378.73 267.91 384.98 261.66L443.32 203.32C449.57 197.07 449.57 186.94 443.32 180.69L384.98 122.35C378.73 116.1 368.6 116.1 362.35 122.35L351.04 133.66C344.79 139.91 344.79 150.04 351.04 156.29L386.75 192L351.04 227.72C344.79 233.97 344.79 244.1 351.04 250.35V250.35ZM624 416H381.54C380.8 435.81 366.83 448 348.8 448H288C269.31 448 254.98 430.53 255.23 416H16C7.2 416 0 423.2 0 432V448C0 483.2 28.8 512 64 512H576C611.2 512 640 483.2 640 448V432C640 423.2 632.8 416 624 416ZM576 48C576 21.6 554.4 0 528 0H112C85.6 0 64 21.6 64 48V384H576V48ZM512 320H128V64H512V320Z" fill="#072981"/>
<path d="M255.03 261.65C261.28 267.9 271.41 267.9 277.66 261.65L288.97 250.34C295.22 244.09 295.22 233.96 288.97 227.71L253.25 192L288.96 156.28C295.21 150.03 295.21 139.9 288.96 133.65L277.65 122.34C271.4 116.09 261.27 116.09 255.02 122.34L196.68 180.68C190.43 186.93 190.43 197.06 196.68 203.31L255.03 261.65V261.65ZM351.04 250.35L362.35 261.66C368.6 267.91 378.73 267.91 384.98 261.66L443.32 203.32C449.57 197.07 449.57 186.94 443.32 180.69L384.98 122.35C378.73 116.1 368.6 116.1 362.35 122.35L351.04 133.66C344.79 139.91 344.79 150.04 351.04 156.29L386.75 192L351.04 227.72C344.79 233.97 344.79 244.1 351.04 250.35V250.35ZM624 416H381.54C380.8 435.81 366.83 448 348.8 448H288C269.31 448 254.98 430.53 255.23 416H16C7.2 416 0 423.2 0 432V448C0 483.2 28.8 512 64 512H576C611.2 512 640 483.2 640 448V432C640 423.2 632.8 416 624 416ZM576 48C576 21.6 554.4 0 528 0H112C85.6 0 64 21.6 64 48V384H576V48ZM512 320H128V64H512V320Z" fill="url(#paint0_linear)"/>
<path d="M252.896 191.646L252.543 192L252.896 192.354L288.616 228.064C294.671 234.118 294.671 243.932 288.616 249.986L277.306 261.296C271.252 267.351 261.438 267.351 255.384 261.296L197.034 202.956C190.979 196.902 190.979 187.088 197.034 181.034L255.374 122.694C261.428 116.639 271.242 116.639 277.296 122.694L288.606 134.004C294.661 140.058 294.661 149.872 288.606 155.926L288.96 156.28L288.606 155.926L252.896 191.646ZM387.104 192.354L387.457 192L387.104 191.646L351.394 155.936C345.339 149.882 345.339 140.068 351.394 134.014L362.704 122.704C368.758 116.649 378.572 116.649 384.626 122.704L442.966 181.044C449.021 187.098 449.021 196.912 442.966 202.966L384.626 261.306C378.572 267.361 368.758 267.361 362.704 261.306L351.394 249.996C345.339 243.942 345.339 234.128 351.394 228.074L351.04 227.72L351.394 228.074L387.104 192.354ZM512 320.5H512.5V320V64V63.5H512H128H127.5V64V320V320.5H128H512ZM16 416.5H254.727C254.767 423.783 258.328 431.678 264.15 437.794C270.114 444.058 278.494 448.5 288 448.5H348.8C357.929 448.5 366.056 445.413 371.997 439.792C377.845 434.26 381.545 426.302 382.019 416.5H624C632.524 416.5 639.5 423.476 639.5 432V448C639.5 482.924 610.924 511.5 576 511.5H64C29.0761 511.5 0.5 482.924 0.5 448V432C0.5 423.476 7.47614 416.5 16 416.5ZM528 0.5C554.124 0.5 575.5 21.8761 575.5 48V383.5H64.5V48C64.5 21.8761 85.8761 0.5 112 0.5H528Z" stroke="black"/>
</g>
<defs>
<filter id="filter0_d" x="-4" y="0" width="648" height="520" filterUnits="userSpaceOnUse" color-interpolation-filters="sRGB">
<feFlood flood-opacity="0" result="BackgroundImageFix"/>
<feColorMatrix in="SourceAlpha" type="matrix" values="0 0 0 0 0 0 0 0 0 0 0 0 0 0 0 0 0 0 127 0"/>
<feOffset dy="4"/>
<feGaussianBlur stdDeviation="2"/>
<feColorMatrix type="matrix" values="0 0 0 0 0 0 0 0 0 0 0 0 0 0 0 0 0 0 0.25 0"/>
<feBlend mode="normal" in2="BackgroundImageFix" result="effect1_dropShadow"/>
<feBlend mode="normal" in="SourceGraphic" in2="effect1_dropShadow" result="shape"/>
</filter>
<linearGradient id="paint0_linear" x1="320" y1="0" x2="320" y2="512" gradientUnits="userSpaceOnUse">
<stop offset="0.232422" stop-color="#6D80E4"/>
<stop offset="1" stop-color="white" stop-opacity="0"/>
</linearGradient>
</defs>
</svg>
